<svg width="388" height="34" viewBox="0 0 388 34" fill="none" xmlns="http://www.w3.org/2000/svg">
<path fill-rule="evenodd" clip-rule="evenodd" d="M13.9125 12.1461C19.2 1.91799 28.875 0.458929 28.875 0.458929C29.2363 0.407371 30.5922 0.338042 32.295 0.250982C33.0664 0.21154 33.909 0.168458 34.7625 0.12174C40.65 -0.103012 43.9125 0.458885 48.1125 2.51912C50.325 3.64289 51.675 4.7292 55.425 8.51255C60.825 13.9816 61.95 14.6184 66 14.6184C70.05 14.6184 71.175 13.9441 76.575 8.55001C81.7125 3.38068 83.8875 1.99469 88.725 0.758543C92.7 -0.252848 99.3 -0.252848 103.275 0.758543C108.112 1.99469 110.287 3.38068 115.425 8.55001C120.825 13.9441 121.95 14.6184 126 14.6184C130.05 14.6184 131.175 13.9441 136.575 8.55001C143.475 1.62011 147.502 9.15527e-05 155.52 9.15527e-05C163.537 9.15527e-05 170.88 1.91799 174.75 8.17542C176.481 10.9738 179.55 13.6444 180.712 14.1314C181.5 14.4685 183.938 14.7682 187.012 14.8806L192 15.1053V15H370V10.9999L388 22.4999L370 33.9999V30H192V29.9765H186.113C179.212 29.9765 176.625 29.4896 172.762 27.4668C170.025 26.0433 167.587 23.8332 163.537 19.1509C162.187 17.6525 160.575 16.1542 159.9 15.892C157.95 15.0679 153.262 15.2177 151.462 16.1542C150.637 16.5662 147.9 18.9636 145.387 21.4733C140.287 26.6052 138.112 27.9912 133.275 29.2273C129.262 30.2762 122.7 30.2387 118.688 29.2273C114 28.0287 111.412 26.343 106.462 21.361C101.137 15.9669 100.087 15.3675 96 15.3675C91.9125 15.3675 90.9375 15.9294 85.3875 21.4733C80.2875 26.6052 78.1125 27.9912 73.275 29.2273C69.2625 30.2762 62.7 30.2387 58.6875 29.2273C54 28.0287 51.4125 26.343 46.4625 21.361C44.0625 18.9261 41.4 16.5662 40.575 16.1542C38.7375 15.2177 34.0875 15.0679 32.1 15.892C31.425 16.1542 29.8125 17.6525 28.4625 19.1509C20.5875 28.2159 16.95 29.9765 5.925 29.9765H0V22.5222V15.1053L4.9875 14.8806C10.65 14.6558 11.925 14.2812 13.9125 12.1461Z" fill="url(#paint0_linear_95_1741)"/>
<defs>
<linearGradient id="paint0_linear_95_1741" x1="0" y1="-35.6282" x2="0.00531655" y2="-34.7768" gradientUnits="userSpaceOnUse">
<stop stop-color="#24D385"/>
<stop offset="1" stop-color="#0684CA"/>
</linearGradient>
</defs>
</svg>
