<svg width="10" height="9" viewBox="0 0 10 9" fill="none" xmlns="http://www.w3.org/2000/svg">
<path d="M0.564036 3.64652C0.564036 3.64652 4.63298 1.93275 6.04415 1.32929C6.58512 1.08793 8.41966 0.315497 8.41966 0.315497C8.41966 0.315497 9.26639 -0.0224124 9.19582 0.798258C9.17229 1.1362 8.98414 2.31893 8.79599 3.59825C8.51374 5.40859 8.20798 7.38788 8.20798 7.38788C8.20798 7.38788 8.16094 7.94307 7.76111 8.03961C7.36128 8.13616 6.7027 7.7017 6.58512 7.60512C6.49102 7.53273 4.82113 6.44651 4.20961 5.91547C4.04497 5.77066 3.85682 5.48102 4.23311 5.14308C5.07984 4.34653 6.09119 3.35688 6.7027 2.7293C6.98495 2.43963 7.26718 1.76378 6.09119 2.58445C4.42129 3.76722 2.7749 4.87756 2.7749 4.87756C2.7749 4.87756 2.39858 5.11892 1.69299 4.90168C0.987369 4.68447 0.164173 4.3948 0.164173 4.3948C0.164173 4.3948 -0.40027 4.03274 0.564036 3.64652Z" fill="white"/>
</svg>
