<svg width="12" height="12" viewBox="0 0 12 12" fill="none" xmlns="http://www.w3.org/2000/svg">
<path d="M3.18024 10.6981C3.18024 10.4997 3.18024 10.3014 3.18024 10.1031C3.18165 10.095 3.18136 10.0867 3.1794 10.0787C3.17744 10.0707 3.17384 10.0632 3.16883 10.0566C3.16382 10.0501 3.15751 10.0446 3.15028 10.0405C3.14305 10.0365 3.13506 10.034 3.1268 10.0331C2.63071 9.89345 2.17282 9.64467 1.78727 9.30531C1.50634 9.0521 1.27245 8.75201 1.09621 8.41869C0.847817 7.9372 0.682507 7.41792 0.607134 6.88236C0.513747 6.21055 0.481314 5.53181 0.510224 4.85426C0.516564 4.53838 0.532866 4.22609 0.569095 3.91021C0.626872 3.30994 0.779694 2.72244 1.02195 2.16928C1.32108 1.48915 1.86376 0.942824 2.54534 0.635642C3.00964 0.425123 3.49809 0.271435 3.9999 0.177974C4.49201 0.0856177 4.99026 0.028932 5.49069 0.00836751C5.94178 -0.00743814 6.39338 -0.000849039 6.84381 0.0281101C7.48848 0.0550716 8.12731 0.160868 8.74579 0.343093C9.20434 0.474064 9.64057 0.672181 10.04 0.930883C10.4293 1.19562 10.7441 1.55417 10.9548 1.97275C11.2026 2.46164 11.371 2.98617 11.4538 3.52703C11.5077 3.84814 11.5431 4.17202 11.5598 4.4971C11.5834 4.90003 11.5806 5.30475 11.5652 5.70588C11.5498 6.10702 11.5154 6.49648 11.4656 6.88954C11.4026 7.47948 11.2196 8.05066 10.9276 8.56855C10.5475 9.22371 9.93869 9.71845 9.21585 9.9595C8.72159 10.131 8.21125 10.2531 7.69245 10.3238C7.31296 10.3759 6.93257 10.4136 6.55036 10.4288C6.25782 10.4423 5.96528 10.4387 5.67273 10.4342C5.50699 10.4342 5.34215 10.4181 5.17731 10.4037C5.16113 10.4007 5.14441 10.4025 5.12926 10.4089C5.1141 10.4153 5.1012 10.426 5.09218 10.4396C4.75888 10.8363 4.4129 11.2221 4.0642 11.6062C4.00069 11.6763 3.92715 11.7368 3.84593 11.7857C3.79262 11.8203 3.73183 11.8421 3.66846 11.8492C3.6051 11.8563 3.54095 11.8485 3.48118 11.8265C3.42141 11.8045 3.36771 11.7688 3.3244 11.7225C3.28109 11.6761 3.24939 11.6203 3.23186 11.5595C3.19735 11.4516 3.18023 11.3389 3.18114 11.2257C3.18024 11.048 3.18024 10.873 3.18024 10.6981ZM3.58328 11.451L3.62584 11.4115L4.38211 10.5796C4.67314 10.2595 4.96387 9.93916 5.2543 9.6185C5.26858 9.59894 5.28784 9.58348 5.31011 9.5737C5.33239 9.56393 5.35688 9.56019 5.3811 9.56286C5.47982 9.57273 5.57854 9.57632 5.67817 9.57722C6.02234 9.57722 6.3665 9.57722 6.71067 9.55299C7.02314 9.52876 7.3347 9.49107 7.64445 9.44261C7.97795 9.38508 8.3081 9.3099 8.63348 9.21736C9.35804 9.02443 9.91867 8.61163 10.271 7.94307C10.479 7.53203 10.6094 7.0868 10.6559 6.6293C10.711 6.19809 10.7439 5.76439 10.7546 5.32988C10.7707 4.78404 10.7331 4.23794 10.6423 3.69932C10.5794 3.30909 10.4662 2.92848 10.3054 2.56682C10.1007 2.11813 9.81089 1.74661 9.36438 1.5079C8.67967 1.14177 7.93881 0.978444 7.1753 0.894987C6.95883 0.871655 6.74237 0.859091 6.525 0.851015C6.07992 0.828279 5.63389 0.830676 5.18909 0.858194C4.8692 0.881716 4.55102 0.92427 4.23629 0.985623C3.77343 1.06922 3.32566 1.22043 2.90762 1.43432C2.66527 1.55565 2.44539 1.71677 2.25733 1.91083C1.95253 2.24837 1.72895 2.65 1.60341 3.08551C1.45448 3.59272 1.37318 4.11706 1.36159 4.64517C1.33244 5.17328 1.3391 5.70273 1.38151 6.22996C1.4079 6.54372 1.46092 6.85472 1.54001 7.15965C1.65768 7.63485 1.88597 8.07617 2.20661 8.4483C2.55277 8.82796 3.00017 9.10296 3.49723 9.24159C3.55973 9.26044 3.5878 9.28198 3.5878 9.35197C3.58237 9.61042 3.5878 9.86887 3.5878 10.1273L3.58328 11.451Z" fill="white"/>
<path d="M2.94901 3.43293C2.94267 3.2364 3.05045 3.09371 3.18087 2.96539C3.35288 2.80212 3.54239 2.65798 3.74603 2.53554C3.83888 2.4788 3.94929 2.45718 4.05695 2.47465C4.16461 2.49213 4.26229 2.54753 4.33202 2.63066C4.5784 2.88727 4.79893 3.16709 4.99046 3.46613C5.08531 3.60065 5.15693 3.74985 5.2024 3.90764C5.22057 3.96922 5.22175 4.0345 5.20582 4.09668C5.18989 4.15886 5.15744 4.21568 5.11183 4.26122C5.00734 4.36284 4.89598 4.45728 4.77853 4.54389C4.71935 4.59063 4.67534 4.65357 4.65199 4.72489C4.62864 4.79622 4.62698 4.87277 4.6472 4.94503C4.71974 5.28431 4.88411 5.59763 5.1227 5.85139C5.41261 6.20206 5.78614 6.47563 6.20954 6.64737C6.31358 6.70037 6.43279 6.71652 6.54737 6.69314C6.61012 6.67617 6.66589 6.64007 6.70677 6.58994C6.77017 6.51007 6.839 6.4329 6.89606 6.34764C6.97007 6.2413 7.08307 6.16781 7.21098 6.14283C7.33889 6.11785 7.47158 6.14337 7.58078 6.21393C7.88779 6.39042 8.17764 6.5947 8.44663 6.82416C8.51003 6.878 8.57614 6.93005 8.63954 6.98479C8.71456 7.04148 8.76874 7.12098 8.79377 7.2111C8.8188 7.30123 8.8133 7.397 8.77812 7.48374C8.72216 7.62959 8.64059 7.76448 8.5372 7.88218C8.40871 8.05912 8.24504 8.20815 8.05627 8.3201C7.96603 8.37261 7.86463 8.40345 7.7602 8.41015C7.65577 8.41685 7.55121 8.39923 7.45488 8.35869C6.72211 8.06638 6.03742 7.66744 5.42339 7.17504C4.82282 6.68517 4.29797 6.11072 3.86558 5.47C3.50175 4.93959 3.2123 4.36268 3.00516 3.75509C2.98311 3.6816 2.96497 3.60702 2.95082 3.53164C2.94679 3.49888 2.94619 3.4658 2.94901 3.43293Z" fill="white"/>
<path d="M6.07644 2.48076C6.68953 2.49199 7.27919 2.71606 7.74263 3.11391C8.20607 3.51176 8.51389 4.05815 8.61241 4.65782C8.65207 4.87584 8.67328 5.09677 8.67581 5.3183C8.67581 5.37035 8.66222 5.40804 8.60607 5.41342C8.54992 5.4188 8.53542 5.37124 8.53542 5.32368C8.54384 4.87559 8.451 4.43131 8.26371 4.02337C8.10599 3.68816 7.87234 3.39353 7.58095 3.1624C7.28955 2.93127 6.94826 2.76986 6.58363 2.69074C6.39085 2.64652 6.19371 2.62365 5.99583 2.62254C5.97656 2.62287 5.95735 2.62045 5.93877 2.61536C5.92296 2.61095 5.90949 2.60062 5.90121 2.58656C5.89294 2.57249 5.89049 2.5558 5.89439 2.53998C5.89451 2.53248 5.89613 2.52508 5.89917 2.5182C5.9022 2.51133 5.90658 2.50512 5.91206 2.49994C5.91754 2.49476 5.92401 2.49072 5.93108 2.48804C5.93815 2.48536 5.94569 2.48411 5.95326 2.48435C5.99402 2.47896 6.03568 2.48076 6.07644 2.48076Z" fill="white"/>
<path d="M7.82491 4.91631C7.82187 4.667 7.7599 4.42187 7.64398 4.20058C7.52806 3.97928 7.36141 3.78798 7.1574 3.64202C6.9193 3.4763 6.6425 3.37345 6.35314 3.34319C6.30423 3.33691 6.25532 3.33422 6.20551 3.32883C6.15569 3.32345 6.12581 3.30281 6.13033 3.25255C6.13486 3.2023 6.16656 3.18435 6.2209 3.18794C7.02336 3.2364 7.70626 3.68599 7.91638 4.52326C7.95482 4.6847 7.97397 4.85005 7.97344 5.01592C7.97344 5.03118 7.97344 5.04643 7.97344 5.06079C7.97344 5.10566 7.94446 5.13527 7.90008 5.13438C7.89024 5.13405 7.88056 5.13174 7.87165 5.12758C7.86274 5.12343 7.85478 5.11751 7.84826 5.11021C7.84173 5.1029 7.83677 5.09435 7.83369 5.08508C7.83061 5.07582 7.82947 5.06602 7.83034 5.0563C7.82309 5.01413 7.82491 4.97105 7.82491 4.91631Z" fill="white"/>
<path d="M6.41861 3.91449C6.85878 3.94411 7.16582 4.15768 7.25005 4.62163C7.26026 4.68107 7.26752 4.74097 7.27178 4.80111C7.27178 4.84957 7.26091 4.89085 7.20748 4.89085C7.15404 4.89085 7.13593 4.85496 7.13412 4.80111C7.13361 4.62327 7.07832 4.44982 6.97562 4.30396C6.86769 4.17185 6.71275 4.08578 6.54269 4.06346C6.50467 4.05641 6.46626 4.05162 6.42767 4.0491C6.36427 4.0491 6.32895 4.01769 6.3371 3.96923C6.34525 3.92077 6.38329 3.9118 6.41861 3.91449Z" fill="white"/>
</svg>
