<svg width="12" height="12" viewBox="0 0 12 12" fill="none" xmlns="http://www.w3.org/2000/svg">
<path fill-rule="evenodd" clip-rule="evenodd" d="M7.63816 6.27804C7.52952 6.19056 7.40231 6.12899 7.26623 6.09802C7.13015 6.06704 6.98878 6.06748 6.85289 6.0993C6.64872 6.18397 6.51679 6.50383 6.38487 6.66376C6.35705 6.7021 6.31617 6.72898 6.26991 6.73938C6.22364 6.74977 6.17517 6.74295 6.13358 6.7202C5.38611 6.42793 4.75957 5.89194 4.35573 5.1993C4.32128 5.15608 4.30498 5.1012 4.31026 5.04622C4.31553 4.99124 4.34197 4.94044 4.384 4.90453C4.53114 4.75911 4.63917 4.57899 4.69811 4.38084C4.71119 4.16227 4.66104 3.94456 4.55362 3.75366C4.47057 3.48604 4.31253 3.24773 4.09816 3.06691C3.98759 3.01726 3.865 3.00062 3.74517 3.01898C3.62534 3.03734 3.51339 3.08993 3.42283 3.17039C3.26561 3.30581 3.14082 3.47472 3.05764 3.66466C2.97447 3.85461 2.93504 4.06077 2.94224 4.26795C2.94273 4.38429 2.9575 4.50014 2.98622 4.61289C3.05916 4.8838 3.17132 5.14263 3.31917 5.38118C3.42584 5.56392 3.54223 5.74083 3.66783 5.91115C4.07603 6.47058 4.58914 6.94557 5.17869 7.30975C5.47453 7.49481 5.79072 7.64528 6.12102 7.75818C6.46412 7.91345 6.84295 7.97305 7.21725 7.93065C7.43052 7.89842 7.63259 7.81436 7.80567 7.68586C7.97875 7.55735 8.11754 7.38835 8.20984 7.19372C8.26406 7.07614 8.28052 6.9447 8.25695 6.81741C8.20041 6.55714 7.85175 6.40348 7.63816 6.27804Z" fill="white"/>
<path d="M0 11.1299L0.797835 8.16335C0.154401 7.00773 -0.0500243 5.65922 0.222071 4.36527C0.494167 3.07133 1.22453 1.91874 2.27914 1.11901C3.33375 0.319279 4.64187 -0.0739465 5.96345 0.0114887C7.28503 0.0969238 8.53142 0.655289 9.47391 1.58412C10.4164 2.51296 10.9918 3.74996 11.0945 5.06813C11.1971 6.38631 10.8202 7.69723 10.0329 8.76036C9.24552 9.82348 8.10056 10.5675 6.8081 10.8559C5.51563 11.1442 4.16236 10.9576 2.99659 10.3302L0 11.1299ZM3.14108 9.22014L3.3264 9.32989C4.17079 9.82955 5.15702 10.0363 6.13141 9.91797C7.10579 9.79963 8.0136 9.36282 8.71336 8.67561C9.41311 7.9884 9.86551 7.08941 10.0001 6.11871C10.1346 5.14802 9.94372 4.16015 9.45718 3.30907C8.97064 2.45798 8.21576 1.79148 7.31017 1.41342C6.40459 1.03537 5.39918 0.966999 4.45061 1.21897C3.50204 1.47094 2.66361 2.0291 2.06596 2.80646C1.46832 3.58382 1.14504 4.53672 1.14649 5.51667C1.1457 6.3292 1.37079 7.12601 1.7967 7.8184L1.91292 8.00969L1.46688 9.66543L3.14108 9.22014Z" fill="white"/>
</svg>
