<svg width="15" height="13" viewBox="0 0 15 13" fill="none" xmlns="http://www.w3.org/2000/svg">
<path d="M1.34605 5.46905C1.34605 5.46905 7.44946 2.8984 9.56623 1.99321C10.3777 1.63116 13.1295 0.472513 13.1295 0.472513C13.1295 0.472513 14.3996 -0.0343511 14.2937 1.19666C14.2584 1.70357 13.9762 3.47767 13.694 5.39664C13.2706 8.11216 12.812 11.0811 12.812 11.0811C12.812 11.0811 12.7414 11.9139 12.1417 12.0587C11.5419 12.2035 10.5541 11.5518 10.3777 11.407C10.2365 11.2984 7.73169 9.66903 6.81442 8.87248C6.56745 8.65525 6.28523 8.2208 6.84967 7.71388C8.11977 6.51906 9.63678 5.03459 10.5541 4.09322C10.9774 3.65872 11.4008 2.64494 9.63678 3.87595C7.13194 5.6501 4.66236 7.31561 4.66236 7.31561C4.66236 7.31561 4.09786 7.67765 3.03948 7.35179C1.98105 7.02597 0.74626 6.59146 0.74626 6.59146C0.74626 6.59146 -0.100405 6.04837 1.34605 5.46905Z" fill="white"/>
</svg>
