<svg width="18" height="18" viewBox="0 0 18 18" fill="none" xmlns="http://www.w3.org/2000/svg">
<path d="M4.77036 16.0471C4.77036 15.7496 4.77036 15.4521 4.77036 15.1546C4.77247 15.1425 4.77204 15.13 4.7691 15.118C4.76616 15.106 4.76076 15.0948 4.75325 15.0849C4.74574 15.0751 4.73626 15.0669 4.72542 15.0608C4.71457 15.0547 4.70259 15.0509 4.6902 15.0496C3.94607 14.8402 3.25924 14.467 2.6809 13.958C2.25951 13.5781 1.90867 13.128 1.64432 12.628C1.27173 11.9058 1.02376 11.1269 0.910701 10.3235C0.77062 9.31583 0.72197 8.29771 0.765336 7.28139C0.774846 6.80757 0.7993 6.33914 0.853642 5.86532C0.940307 4.96492 1.16954 4.08365 1.53292 3.25392C1.98162 2.23372 2.79564 1.41424 3.81801 0.953463C4.51445 0.637685 5.24713 0.407152 5.99985 0.266961C6.73801 0.128427 7.48539 0.043398 8.23603 0.0125513C8.91267 -0.0111572 9.59008 -0.00127356 10.2657 0.0421651C11.2327 0.0826074 12.191 0.241302 13.1187 0.51464C13.8065 0.711096 14.4609 1.00827 15.0601 1.39632C15.6439 1.79343 16.1161 2.33125 16.4322 2.95912C16.8038 3.69246 17.0564 4.47925 17.1808 5.29054C17.2615 5.7722 17.3146 6.25802 17.3397 6.74565C17.375 7.35004 17.371 7.95713 17.3479 8.55883C17.3248 9.16052 17.2731 9.74473 17.1984 10.3343C17.104 11.2192 16.8294 12.076 16.3914 12.8528C15.8213 13.8356 14.908 14.5777 13.8238 14.9393C13.0824 15.1965 12.3169 15.3796 11.5387 15.4858C10.9694 15.5638 10.3989 15.6204 9.82554 15.6433C9.38673 15.6634 8.94792 15.6581 8.5091 15.6513C8.26049 15.6513 8.01323 15.6271 7.76597 15.6056C7.7417 15.601 7.71661 15.6037 7.69388 15.6133C7.67116 15.6229 7.6518 15.6389 7.63827 15.6594C7.13832 16.2544 6.61935 16.8332 6.09631 17.4093C6.00103 17.5144 5.89072 17.6051 5.7689 17.6785C5.68893 17.7305 5.59774 17.7631 5.5027 17.7738C5.40766 17.7844 5.31142 17.7727 5.22177 17.7397C5.13212 17.7067 5.05156 17.6533 4.9866 17.5837C4.92163 17.5142 4.87409 17.4304 4.8478 17.3393C4.79602 17.1774 4.77035 17.0084 4.77172 16.8386C4.77036 16.5721 4.77036 16.3096 4.77036 16.0471ZM5.37491 17.1764L5.43877 17.1172L6.57316 15.8694C7.00971 15.3893 7.44581 14.9087 7.88145 14.4277C7.90286 14.3984 7.93175 14.3752 7.96517 14.3606C7.99858 14.3459 8.03533 14.3403 8.07165 14.3443C8.21973 14.3591 8.36781 14.3645 8.51725 14.3658C9.0335 14.3658 9.54976 14.3658 10.066 14.3295C10.5347 14.2931 11.0021 14.2366 11.4667 14.1639C11.9669 14.0776 12.4622 13.9648 12.9502 13.826C14.0371 13.5366 14.878 12.9174 15.4065 11.9146C15.7185 11.2981 15.9142 10.6302 15.9839 9.94395C16.0665 9.29713 16.1159 8.64659 16.132 7.99482C16.156 7.17606 16.0996 6.35692 15.9635 5.54899C15.8691 4.96364 15.6993 4.39271 15.4581 3.85023C15.1511 3.17719 14.7163 2.61991 14.0466 2.26185C13.0195 1.71265 11.9082 1.46767 10.7629 1.34248C10.4383 1.30748 10.1136 1.28864 9.7875 1.27652C9.11988 1.24242 8.45084 1.24601 7.78363 1.28729C7.3038 1.32257 6.82654 1.3864 6.35443 1.47843C5.66015 1.60383 4.98849 1.83065 4.36143 2.15148C3.9979 2.33348 3.66809 2.57515 3.38599 2.86625C2.92879 3.37256 2.59342 3.97501 2.40511 4.62827C2.18172 5.38908 2.05977 6.17559 2.04238 6.96776C1.99867 7.75992 2.00865 8.5541 2.07227 9.34494C2.11184 9.81558 2.19138 10.2821 2.31001 10.7395C2.48653 11.4523 2.82896 12.1143 3.30991 12.6725C3.82915 13.2419 4.50026 13.6544 5.24585 13.8624C5.33959 13.8907 5.38171 13.923 5.38171 14.028C5.37356 14.4156 5.38171 14.8033 5.38171 15.191L5.37491 17.1764Z" fill="white"/>
<path d="M4.42351 5.14939C4.414 4.8546 4.57567 4.64057 4.7713 4.44808C5.02932 4.20319 5.31359 3.98698 5.61904 3.80331C5.75833 3.7182 5.92394 3.68577 6.08543 3.71198C6.24692 3.7382 6.39343 3.82129 6.49803 3.94599C6.8676 4.33091 7.19839 4.75063 7.4857 5.19919C7.62797 5.40097 7.7354 5.62478 7.8036 5.86147C7.83085 5.95383 7.83262 6.05175 7.80873 6.14502C7.78484 6.23829 7.73615 6.32352 7.66774 6.39182C7.51101 6.54426 7.34398 6.68593 7.16779 6.81584C7.07902 6.88594 7.01301 6.98036 6.97799 7.08734C6.94296 7.19433 6.94046 7.30916 6.9708 7.41754C7.0796 7.92646 7.32617 8.39644 7.68404 8.77708C8.11891 9.30309 8.67921 9.71345 9.31431 9.97106C9.47037 10.0506 9.64918 10.0748 9.82105 10.0397C9.91518 10.0143 9.99884 9.9601 10.0602 9.88491C10.1553 9.76511 10.2585 9.64934 10.3441 9.52147C10.4551 9.36195 10.6246 9.25171 10.8165 9.21425C11.0083 9.17678 11.2074 9.21505 11.3712 9.3209C11.8317 9.58563 12.2665 9.89205 12.6699 10.2362C12.765 10.317 12.8642 10.3951 12.9593 10.4772C13.0718 10.5622 13.1531 10.6815 13.1906 10.8167C13.2282 10.9518 13.2199 11.0955 13.1672 11.2256C13.0832 11.4444 12.9609 11.6467 12.8058 11.8233C12.6131 12.0887 12.3676 12.3122 12.0844 12.4802C11.949 12.5589 11.7969 12.6052 11.6403 12.6152C11.4837 12.6253 11.3268 12.5988 11.1823 12.538C10.0832 12.0996 9.05612 11.5012 8.13509 10.7626C7.23423 10.0278 6.44695 9.16608 5.79837 8.205C5.25263 7.40938 4.81845 6.54402 4.50774 5.63263C4.47466 5.5224 4.44745 5.41052 4.42623 5.29746C4.42019 5.24833 4.41928 5.19871 4.42351 5.14939V5.14939Z" fill="white"/>
<path d="M9.11466 3.72113C10.0343 3.73798 10.9188 4.07409 11.6139 4.67086C12.3091 5.26764 12.7708 6.08722 12.9186 6.98673C12.9781 7.31377 13.0099 7.64516 13.0137 7.97745C13.0137 8.05552 12.9933 8.11205 12.9091 8.12013C12.8249 8.12821 12.8031 8.05686 12.8031 7.98552C12.8158 7.31339 12.6765 6.64696 12.3956 6.03505C12.159 5.53224 11.8085 5.0903 11.3714 4.7436C10.9343 4.3969 10.4224 4.15479 9.87545 4.03612C9.58628 3.96978 9.29056 3.93547 8.99375 3.93381C8.96484 3.93431 8.93602 3.93068 8.90816 3.92305C8.88444 3.91642 8.86424 3.90093 8.85182 3.87983C8.8394 3.85874 8.83574 3.8337 8.84159 3.80998C8.84176 3.79872 8.8442 3.78762 8.84875 3.7773C8.8533 3.76699 8.85987 3.75768 8.86809 3.74991C8.87631 3.74215 8.88601 3.73608 8.89662 3.73206C8.90723 3.72804 8.91854 3.72616 8.92989 3.72652C8.99103 3.71844 9.05352 3.72113 9.11466 3.72113Z" fill="white"/>
<path d="M11.7374 7.37447C11.7328 7.00051 11.6398 6.63281 11.466 6.30086C11.2921 5.96892 11.0421 5.68197 10.7361 5.46303C10.379 5.21445 9.96375 5.06018 9.52971 5.01479C9.45634 5.00536 9.38298 5.00133 9.30826 4.99325C9.23354 4.98517 9.18871 4.95421 9.1955 4.87883C9.20229 4.80345 9.24984 4.77653 9.33136 4.78191C10.535 4.8546 11.5594 5.52899 11.8746 6.78488C11.9322 7.02704 11.961 7.27508 11.9602 7.52388C11.9602 7.54677 11.9602 7.56965 11.9602 7.59119C11.9602 7.65849 11.9167 7.70291 11.8501 7.70157C11.8354 7.70107 11.8208 7.69761 11.8075 7.69137C11.7941 7.68514 11.7822 7.67627 11.7724 7.66531C11.7626 7.65435 11.7552 7.64153 11.7505 7.62763C11.7459 7.61373 11.7442 7.59904 11.7455 7.58446C11.7346 7.52119 11.7374 7.45658 11.7374 7.37447Z" fill="white"/>
<path d="M9.62791 5.87174C10.2882 5.91616 10.7487 6.23653 10.8751 6.93245C10.8904 7.02161 10.9013 7.11145 10.9077 7.20167C10.9077 7.27436 10.8914 7.33628 10.8112 7.33628C10.7311 7.33628 10.7039 7.28243 10.7012 7.20167C10.7004 6.9349 10.6175 6.67472 10.4634 6.45594C10.3015 6.25778 10.0691 6.12867 9.81404 6.09519C9.75701 6.08462 9.69939 6.07743 9.6415 6.07365C9.5464 6.07365 9.49342 6.02654 9.50565 5.95385C9.51787 5.88116 9.57493 5.8677 9.62791 5.87174Z" fill="white"/>
</svg>
