<svg width="809" height="811" viewBox="0 0 809 811" fill="none" xmlns="http://www.w3.org/2000/svg">
<path fill-rule="evenodd" clip-rule="evenodd" d="M94.167 436.199C112.836 634.111 238.775 788.189 387.286 807.758C388.305 807.996 389.326 808.219 390.349 808.426C232.587 802.889 86.2398 704.018 27.8299 546.864C-49.445 338.954 56.4561 107.765 264.367 30.4901C282.192 23.865 300.188 18.5863 318.244 14.6028C172.907 58.8021 75.2536 235.697 94.167 436.199ZM96.1582 436.011C114.164 626.896 232.104 776.214 373.084 803.418C280.41 768.329 207.68 606.798 203.445 411.296C198.962 204.335 272.815 32.085 372.211 6.63795C370.332 6.77105 368.451 6.92632 366.568 7.1039C196.843 23.1141 75.2794 214.674 96.1582 436.011ZM387.604 805.774C399.019 807.278 410.564 807.981 422.201 807.84C472.778 802.036 517.983 757.758 550.673 688.35C585.278 614.874 605.535 513.826 603.127 402.638C600.718 291.45 576.105 191.374 538.35 119.466C506.498 58.7997 465.541 18.5915 420.975 8.11768C415.384 7.38095 409.763 6.83649 404.114 6.48916C403.481 8.52331 401.583 10 399.34 10C396.952 10 394.956 8.32668 394.459 6.08885C391.765 6.03111 389.067 6.01837 386.363 6.05113C335.789 11.8582 290.587 56.1355 257.899 125.54C223.293 199.016 203.036 300.065 205.445 411.252C207.853 522.44 232.467 622.517 270.221 694.425C302.075 755.094 343.035 795.303 387.604 805.774ZM394.624 3.33461C351.021 4.38093 306.846 12.5679 263.67 28.6154C54.7239 106.275 -51.7046 338.615 25.9552 547.561C103.615 756.507 335.955 862.935 544.901 785.276C753.847 707.616 860.275 475.276 782.615 266.33C722.156 103.663 567.948 3.12952 404.013 3.21941C403.296 1.33716 401.474 1.11889e-06 399.34 5.34366e-06C397.162 -6.71462e-07 395.31 1.39196 394.624 3.33461ZM442.003 806.787C440.119 806.965 438.237 807.12 436.357 807.253C535.755 781.809 609.609 609.558 605.126 402.595C600.892 207.095 528.164 45.5659 435.491 10.4739C576.469 37.6802 694.407 186.997 712.413 377.88C733.292 599.217 611.728 790.777 442.003 806.787ZM714.404 377.692C695.735 179.783 569.8 25.7071 421.293 6.13402C420.273 5.89588 419.251 5.67299 418.227 5.46548C575.987 11.004 722.331 109.875 780.741 267.027C858.016 474.937 752.115 706.126 544.204 783.401C526.379 790.026 508.384 795.304 490.329 799.288C635.664 755.088 733.317 578.194 714.404 377.692Z" fill="url(#paint0_linear_294_1634)"/>
<defs>
<linearGradient id="paint0_linear_294_1634" x1="404" y1="4.50002" x2="404" y2="586.5" gradientUnits="userSpaceOnUse">
<stop stop-color="#24D385"/>
<stop offset="0.667314" stop-color="#24D385" stop-opacity="0"/>
</linearGradient>
</defs>
</svg>
