<svg width="15" height="13" viewBox="0 0 15 13" fill="none" xmlns="http://www.w3.org/2000/svg">
<path d="M1.34605 5.46978C1.34605 5.46978 7.44946 2.89913 9.56623 1.99394C10.3777 1.63189 13.1295 0.473245 13.1295 0.473245C13.1295 0.473245 14.3996 -0.0336187 14.2937 1.19739C14.2584 1.7043 13.9762 3.4784 13.694 5.39737C13.2706 8.11289 12.812 11.0818 12.812 11.0818C12.812 11.0818 12.7414 11.9146 12.1417 12.0594C11.5419 12.2042 10.5541 11.5526 10.3777 11.4077C10.2365 11.2991 7.73169 9.66976 6.81442 8.87321C6.56745 8.65599 6.28523 8.22153 6.84967 7.71462C8.11977 6.51979 9.63678 5.03533 10.5541 4.09396C10.9774 3.65945 11.4008 2.64567 9.63678 3.87668C7.13194 5.65083 4.66236 7.31634 4.66236 7.31634C4.66236 7.31634 4.09786 7.67838 3.03948 7.35252C1.98105 7.0267 0.74626 6.5922 0.74626 6.5922C0.74626 6.5922 -0.100405 6.0491 1.34605 5.46978Z" fill="white"/>
</svg>
