<svg width="17" height="17" viewBox="0 0 17 17" fill="none" xmlns="http://www.w3.org/2000/svg">
<path fill-rule="evenodd" clip-rule="evenodd" d="M11.4572 9.41707C11.2943 9.28585 11.1035 9.19349 10.8993 9.14702C10.6952 9.10056 10.4832 9.10122 10.2793 9.14895C9.97308 9.27595 9.77519 9.75574 9.5773 9.99564C9.53557 10.0531 9.47426 10.0935 9.40486 10.1091C9.33546 10.1247 9.26275 10.1144 9.20037 10.0803C8.07916 9.64189 7.13935 8.83791 6.53359 7.79895C6.48193 7.73412 6.45747 7.6518 6.46538 7.56933C6.47329 7.48686 6.51295 7.41066 6.576 7.3568C6.79671 7.13866 6.95876 6.86849 7.04716 6.57126C7.06679 6.24341 6.99155 5.91684 6.83043 5.6305C6.70586 5.22905 6.4688 4.8716 6.14724 4.60036C5.98139 4.52589 5.7975 4.50092 5.61776 4.52847C5.43801 4.55601 5.27009 4.63489 5.13424 4.75559C4.89841 4.95872 4.71122 5.21207 4.58646 5.497C4.46171 5.78192 4.40255 6.09115 4.41336 6.40192C4.41409 6.57644 4.43624 6.75021 4.47933 6.91934C4.58873 7.32571 4.75699 7.71395 4.97876 8.07178C5.13876 8.34588 5.31334 8.61124 5.50175 8.86672C6.11405 9.70587 6.88372 10.4184 7.76804 10.9646C8.2118 11.2422 8.68608 11.4679 9.18153 11.6373C9.69618 11.8702 10.2644 11.9596 10.8259 11.896C11.1458 11.8476 11.4489 11.7215 11.7085 11.5288C11.9681 11.336 12.1763 11.0825 12.3148 10.7906C12.3961 10.6142 12.4208 10.417 12.3854 10.2261C12.3006 9.83571 11.7776 9.60522 11.4572 9.41707Z" fill="white"/>
<path d="M0 16.6948L1.19675 12.245C0.231601 10.5116 -0.0750365 8.48883 0.333107 6.54791C0.74125 4.60699 1.8368 2.87811 3.41871 1.67851C5.00063 0.478919 6.9628 -0.11092 8.94517 0.017233C10.9275 0.145386 12.7971 0.982934 14.2109 2.37619C15.6246 3.76944 16.4877 5.62494 16.6417 7.6022C16.7957 9.57946 16.2303 11.5458 15.0493 13.1405C13.8683 14.7352 12.1508 15.8512 10.2121 16.2838C8.27345 16.7163 6.24353 16.4364 4.49489 15.4954L0 16.6948ZM4.71162 13.8302L4.98961 13.9948C6.25619 14.7443 7.73554 15.0545 9.19711 14.877C10.6587 14.6994 12.0204 14.0442 13.07 13.0134C14.1197 11.9826 14.7983 10.6341 15.0001 9.17807C15.2019 7.72203 14.9156 6.24023 14.1858 4.9636C13.456 3.68697 12.3236 2.68721 10.9653 2.12013C9.60689 1.55305 8.09877 1.4505 6.67592 1.82846C5.25307 2.20641 3.99541 3.04365 3.09895 4.20969C2.20248 5.37574 1.71756 6.80509 1.71974 8.275C1.71855 9.4938 2.05618 10.689 2.69505 11.7276L2.86938 12.0145L2.20033 14.4981L4.71162 13.8302Z" fill="white"/>
</svg>
