<svg width="50" height="8" viewBox="0 0 50 8" fill="none" xmlns="http://www.w3.org/2000/svg">
<path d="M3.62305 3.23895C5 0.511464 7.51953 0.122381 7.51953 0.122381C7.65625 0.102403 8.33984 0.0724206 9.05273 0.0324645C10.5859 -0.0274696 11.4355 0.12237 12.5293 0.671767C13.1055 0.971438 13.457 1.26112 14.4336 2.27001C15.8398 3.72841 16.1328 3.89823 17.1875 3.89823C18.2422 3.89823 18.5352 3.71843 19.9414 2.28C21.2793 0.901515 21.8457 0.531917 23.1055 0.202278C24.1406 -0.0674257 25.8594 -0.0674257 26.8945 0.202278C28.1543 0.531917 28.7207 0.901515 30.0586 2.28C31.4648 3.71843 31.7578 3.89823 32.8125 3.89823C33.8672 3.89823 34.1602 3.71843 35.5664 2.28C37.3633 0.43203 38.4121 2.47955e-05 40.5 2.47955e-05C42.5879 2.47955e-05 44.5 0.511464 45.5078 2.18011C45.9585 2.92636 46.7578 3.63851 47.0605 3.76837C47.2656 3.85827 47.9004 3.93818 48.7012 3.96815L50 4.02809V6.00592V7.99374H48.4668C46.6699 7.99374 45.9961 7.86388 44.9902 7.32447C44.2773 6.94489 43.6426 6.35553 42.5879 5.1069C42.2363 4.70734 41.8164 4.30778 41.6406 4.23786C41.1328 4.0181 39.9121 4.05805 39.4434 4.30778C39.2285 4.41766 38.5156 5.05696 37.8613 5.72622C36.5332 7.09472 35.9668 7.46432 34.707 7.79396C33.6621 8.07365 31.9531 8.06366 30.9082 7.79396C29.6875 7.47431 29.0137 7.0248 27.7246 5.69626C26.3379 4.25784 26.0645 4.09801 25 4.09801C23.9355 4.09801 23.6816 4.24784 22.2363 5.72622C20.9082 7.09472 20.3418 7.46432 19.082 7.79396C18.0371 8.07365 16.3281 8.06366 15.2832 7.79396C14.0625 7.47431 13.3887 7.0248 12.0996 5.69626C11.4746 5.04697 10.7812 4.41766 10.5664 4.30778C10.0879 4.05805 8.87695 4.0181 8.35937 4.23786C8.18359 4.30778 7.76367 4.70734 7.41211 5.1069C5.36133 7.52425 4.41406 7.99374 1.54297 7.99374H0V6.00592V4.02809L1.29883 3.96815C2.77344 3.90822 3.10547 3.80833 3.62305 3.23895Z" fill="#24D385"/>
</svg>
